<?xml version="1.0" encoding="UTF-8"?>
<svg width="22px" height="22px" viewBox="0 0 22 22" version="1.1" xmlns="http://www.w3.org/2000/svg" xmlns:xlink="http://www.w3.org/1999/xlink">
    <!-- Generator: Sketch 48.2 (47327) - http://www.bohemiancoding.com/sketch -->
    <title>search icon</title>
    <desc>Created with Sketch.</desc>
    <defs></defs>
    <g id="MENU" stroke="none" stroke-width="1" fill="none" fill-rule="evenodd" transform="translate(-1244.000000, -42.000000)">
        <g fill="#000000" id="Page-1">
            <g transform="translate(1244.000000, 42.000000)">
                <path d="M8.3721,13.7451 C5.4101,13.7451 3.0001,11.3351 3.0001,8.3721 C3.0001,5.4101 5.4101,3.0001 8.3721,3.0001 C11.3351,3.0001 13.7451,5.4101 13.7451,8.3721 C13.7451,11.3351 11.3351,13.7451 8.3721,13.7451 Z M15.2531,13.1311 C16.1911,11.7791 16.7451,10.1401 16.7451,8.3721 C16.7451,3.7561 12.9891,0.0001 8.3721,0.0001 C3.7561,0.0001 0.0001,3.7561 0.0001,8.3721 C0.0001,12.9891 3.7561,16.7451 8.3721,16.7451 C10.1401,16.7451 11.7781,16.1911 13.1321,15.2521 L19.2831,21.4041 L21.4041,19.2831 L15.2531,13.1311 Z" id="search-icon"></path>
            </g>
        </g>
    </g>
</svg>